<?xml version="1.0" encoding="UTF-8" standalone="no"?>
<svg
   xmlns:dc="http://purl.org/dc/elements/1.1/"
   xmlns:cc="http://creativecommons.org/ns#"
   xmlns:rdf="http://www.w3.org/1999/02/22-rdf-syntax-ns#"
   xmlns:svg="http://www.w3.org/2000/svg"
   xmlns="http://www.w3.org/2000/svg"
   xmlns:sodipodi="http://sodipodi.sourceforge.net/DTD/sodipodi-0.dtd"
   xmlns:inkscape="http://www.inkscape.org/namespaces/inkscape"
   height="40"
   viewBox="-68 0 29.999999 30.000056"
   width="40"
   version="1.1"
   id="svg10"
   sodipodi:docname="pluginIcon.svg"
   inkscape:version="1.0.1 (3bc2e813f5, 2020-09-07)">
  <metadata
     id="metadata16">
    <rdf:RDF>
      <cc:Work
         rdf:about="">
        <dc:format>image/svg+xml</dc:format>
        <dc:type
           rdf:resource="http://purl.org/dc/dcmitype/StillImage" />
        <dc:title />
      </cc:Work>
    </rdf:RDF>
  </metadata>
  <defs
     id="defs14" />
  <sodipodi:namedview
     pagecolor="#ffffff"
     bordercolor="#666666"
     borderopacity="1"
     objecttolerance="10"
     gridtolerance="10"
     guidetolerance="10"
     inkscape:pageopacity="0"
     inkscape:pageshadow="2"
     inkscape:window-width="1920"
     inkscape:window-height="1043"
     id="namedview12"
     showgrid="true"
     units="px"
     showguides="true"
     inkscape:zoom="15.644738"
     inkscape:cx="2.6970858"
     inkscape:cy="18.337228"
     inkscape:window-x="0"
     inkscape:window-y="0"
     inkscape:window-maximized="1"
     inkscape:current-layer="svg10"
     inkscape:document-rotation="0">
    <inkscape:grid
       type="xygrid"
       id="grid823" />
  </sodipodi:namedview>
  <g
     aria-label="L"
     id="text836"
     style="font-style:normal;font-weight:normal;font-size:30.0001px;line-height:1.25;font-family:sans-serif;fill:#000000;fill-opacity:1;stroke:none;stroke-width:0.750001">
    <path
       d="m -60.532581,25.20484 v -1.25977 h 0.38086 q 0.512697,0 0.952152,-0.07324 0.454103,-0.07324 0.791018,-0.292969 0.336915,-0.234376 0.527346,-0.659182 0.19043,-0.424806 0.19043,-1.127934 V 7.2018505 q 0,-0.7031273 -0.19043,-1.1279334 -0.190431,-0.4248061 -0.527346,-0.6445334 -0.336915,-0.2343758 -0.791018,-0.3076182 -0.439455,-0.073242 -0.952152,-0.073242 h -0.38086 V 3.7887533 h 8.730497 v 1.2597698 h -0.395509 q -0.498048,0 -0.952151,0.073242 -0.439455,0.058594 -0.77637,0.2783212 -0.336915,0.2197273 -0.541994,0.6298849 -0.190431,0.3955091 -0.190431,1.054691 V 23.710694 h 5.917989 q 0.67383,0 1.142582,-0.234376 0.4834,-0.249024 0.791018,-0.629885 0.307618,-0.395509 0.468751,-0.878909 0.175782,-0.4834 0.234376,-0.9668 l 0.29297,-2.241218 h 1.567388 l -0.205079,6.445334 z"
       style="font-style:normal;font-variant:normal;font-weight:normal;font-stretch:normal;font-family:'Noto Serif';-inkscape-font-specification:'Noto Serif';stroke-width:0.750001"
       id="path832" />
  </g>
</svg>
